<svg xmlns="http://www.w3.org/2000/svg" viewBox="-16 -16 32 32" fill="none" stroke="black" stroke-linejoin="round" stroke-linecap="round">
  <defs>
    <path id="eye" d="M6.928203230275509-4L0 0L6.928203230275509 4"/>
    <path id="eye-brow" d="M-3 0C-2-1 2-1 3 0"/>
    <path id="mouth" d="M0 4.5C-3 4.5-7 2-6 0C-5-2-2 0 0 0C2 0 5-2 6 0C7 2 3 4.5 0 4.5" />
  </defs>
  <circle cx="0" cy="0" r="16" fill="white" stroke="none"/>
  <g>
  <!--
  <g transform="rotate(-17) translate(1.5 0)">
  -->
    <g stroke-width="1.2">
      <use href="#eye" transform="translate( 3 0) rotate(  1)" />
      <use href="#eye" transform="translate(-3 0) rotate(179)" />
    </g>
    <g stroke-width=".8">
      <use href="#eye-brow" transform="translate(7.25-10) rotate(10)" />
      <use href="#eye-brow" transform="translate(-7.25-10) rotate(-10)" />
    </g>
    <g stroke-width=".9">
      <use href="#mouth" transform="translate(0 9)" /> 
    </g>
  </g>
</svg>
